name analog
datacolumns 19
datarows 37
range 0.4905 0.5085000000000001
endheader
time	ground_force_vx	ground_force_vy	ground_force_vz	ground_force_px	ground_force_py	ground_force_pz	l_ground_force_vx	l_ground_force_vy	l_ground_force_vz	l_ground_force_px	l_ground_force_py	l_ground_force_pz	ground_torque_x	ground_torque_y	ground_torque_z	l_ground_torque_x	l_ground_torque_y	l_ground_torque_z
0.4905	-0.0	-0.0	-0.0	-18.21027565002441	127.6352081298828	-627.7764282226562	-9.425333023071287	-114.89520263671876	-562.4832763671875	-0.0	-0.0	-0.0	-0.0	-0.0	-0.0	131921.78125	31172.9140625	-13021.1328125
0.491	-0.0	-0.0	-0.0	-19.81594657897949	126.46493530273438	-614.4451293945312	-7.340686321258545	-113.61465454101562	-559.821044921875	-0.0	-0.0	-0.0	-0.0	-0.0	-0.0	131552.0625	30233.046875	-12200.0078125
0.4915	-0.0	-0.0	-0.0	-20.71930313110352	124.448486328125	-603.7191772460938	-4.036527156829834	-111.9918975830078	-558.3379516601562	-0.0	-0.0	-0.0	-0.0	-0.0	-0.0	131378.5	29121.0703125	-11207.2138671875
0.492	-0.0	-0.0	-0.0	-19.904638290405277	122.15382385253906	-593.0737915039062	-0.7769209146499634	-109.45288848876952	-556.5899047851562	-0.0	-0.0	-0.0	-0.0	-0.0	-0.0	131823.390625	28014.041015625	-10017.9560546875
0.4925	-0.0	-0.0	-0.0	-19.57216453552246	120.56023406982422	-586.5003051757812	2.1169991493225098	-107.75245666503906	-556.7727661132812	-0.0	-0.0	-0.0	-0.0	-0.0	-0.0	131984.875	27272.0859375	-8883.833984375
0.493	-0.0	-0.0	-0.0	-19.04764175415039	119.55699157714844	-582.706298828125	3.449422836303711	-106.8568878173828	-554.9806518554688	-0.0	-0.0	-0.0	-0.0	-0.0	-0.0	131949.4375	26211.59375	-8489.9755859375
0.4935	-0.0	-0.0	-0.0	-18.2982177734375	118.58944702148438	-581.2545166015625	2.4180216789245605	-106.28378295898438	-553.3655395507812	-0.0	-0.0	-0.0	-0.0	-0.0	-0.0	131529.640625	25506.041015625	-8679.5439453125
0.494	-0.0	-0.0	-0.0	-17.19444465637207	117.16997528076172	-580.98095703125	0.5881125926971436	-105.930419921875	-548.3878784179688	-0.0	-0.0	-0.0	-0.0	-0.0	-0.0	130731.4140625	24640.767578125	-8967.4326171875
0.4945	-0.0	-0.0	-0.0	-15.578895568847656	116.29595184326172	-584.15966796875	-0.7618160247802734	-105.2698211669922	-544.4183959960938	-0.0	-0.0	-0.0	-0.0	-0.0	-0.0	129858.3046875	23925.265625	-9252.796875
0.495	-0.0	-0.0	-0.0	-13.437915802001951	114.1197509765625	-587.1708374023438	-1.6622364521026611	-103.9872055053711	-540.35791015625	-0.0	-0.0	-0.0	-0.0	-0.0	-0.0	129068.5703125	23142.57421875	-9415.5361328125
0.4955	-0.0	-0.0	-0.0	-11.287734985351562	112.75516510009766	-590.0908203125	-2.418596029281616	-103.1922378540039	-532.4561767578125	-0.0	-0.0	-0.0	-0.0	-0.0	-0.0	128084.46875	22201.884765625	-9245.6220703125
0.496	-0.0	-0.0	-0.0	-8.903034210205078	111.16932678222656	-588.916259765625	-1.8629264831542969	-102.5270767211914	-528.7438354492188	-0.0	-0.0	-0.0	-0.0	-0.0	-0.0	126947.03125	21258.208984375	-9096.697265625
0.4965	-0.0	-0.0	-0.0	-7.785201072692871	109.71075439453124	-583.5477905273438	-0.9196211695671082	-101.95560455322266	-523.3782958984375	-0.0	-0.0	-0.0	-0.0	-0.0	-0.0	125925.78125	20362.876953125	-8744.826171875
0.497	-0.0	-0.0	-0.0	-7.298091888427734	109.18473815917967	-577.2521362304688	0.233682170510292	-100.86337280273438	-518.967041015625	-0.0	-0.0	-0.0	-0.0	-0.0	-0.0	124951.1953125	19442.30859375	-8188.13818359375
0.4975	-0.0	-0.0	-0.0	-7.923954486846924	108.60169219970705	-569.8704833984375	2.057206630706787	-99.82735443115234	-514.36669921875	-0.0	-0.0	-0.0	-0.0	-0.0	-0.0	124230.515625	18483.724609375	-7469.5673828125
0.498	-0.0	-0.0	-0.0	-8.937220573425293	107.25618743896484	-562.9043579101562	4.000182628631592	-97.82009887695312	-512.2054443359375	-0.0	-0.0	-0.0	-0.0	-0.0	-0.0	123745.9765625	17469.740234375	-6798.7822265625
0.4985	-0.0	-0.0	-0.0	-9.228992462158203	106.61647033691406	-552.3106689453125	5.4435906410217285	-96.22264099121094	-508.20648193359375	-0.0	-0.0	-0.0	-0.0	-0.0	-0.0	122880.6328125	16549.037109375	-6039.69873046875
0.499	-0.0	-0.0	-0.0	-9.3256254196167	106.22803497314452	-543.4828491210938	6.7741804122924805	-94.2635269165039	-501.9840698242188	-0.0	-0.0	-0.0	-0.0	-0.0	-0.0	121375.8359375	15901.7353515625	-5539.2353515625
0.4995	-0.0	-0.0	-0.0	-9.577763557434082	105.73336791992188	-535.4207763671875	7.121387481689453	-93.115478515625	-494.7847900390625	-0.0	-0.0	-0.0	-0.0	-0.0	-0.0	119614.9296875	15062.515625	-5377.0458984375
0.5	-0.0	-0.0	-0.0	-9.35688304901123	104.5572738647461	-528.6409301757812	6.426587104797363	-92.19314575195312	-485.9319152832031	-0.0	-0.0	-0.0	-0.0	-0.0	-0.0	117883.5703125	14477.29296875	-5269.38134765625
0.5005000000000001	-0.0	-0.0	-0.0	-9.088629722595217	103.79069519042967	-522.6072998046875	6.316121578216553	-89.99267578125	-478.6868896484375	-0.0	-0.0	-0.0	-0.0	-0.0	-0.0	116381.296875	13443.2490234375	-5271.291015625
0.501	-0.0	-0.0	-0.0	-8.239395141601562	102.67822265625	-517.254638671875	5.43630313873291	-88.04290771484375	-471.076416015625	-0.0	-0.0	-0.0	-0.0	-0.0	-0.0	114857.921875	12985.458984375	-5150.37646484375
0.5015000000000001	-0.0	-0.0	-0.0	-7.640139102935791	101.6591796875	-512.3375854492188	5.550210952758789	-85.40707397460938	-464.2198791503906	-0.0	-0.0	-0.0	-0.0	-0.0	-0.0	113136.53125	12042.8212890625	-4897.15966796875
0.502	-0.0	-0.0	-0.0	-7.2006144523620605	100.18901824951172	-507.8216552734375	5.766201019287109	-83.564453125	-455.1944580078125	-0.0	-0.0	-0.0	-0.0	-0.0	-0.0	111364.140625	11333.4873046875	-4731.52783203125
0.5025000000000001	-0.0	-0.0	-0.0	-6.397593975067139	99.13229370117188	-502.42425537109375	6.083035469055176	-81.45783233642578	-448.6598510742188	-0.0	-0.0	-0.0	-0.0	-0.0	-0.0	109757.6484375	10617.9912109375	-4525.298828125
0.503	-0.0	-0.0	-0.0	-6.250771045684815	97.890869140625	-495.7389526367188	6.41267728805542	-80.55545806884766	-441.4039916992188	-0.0	-0.0	-0.0	-0.0	-0.0	-0.0	108184.5859375	9907.3330078125	-4247.28955078125
0.5035000000000001	-0.0	-0.0	-0.0	-6.428972244262695	95.96760559082033	-491.5010681152344	6.215641021728516	-79.27562713623047	-433.7704162597656	-0.0	-0.0	-0.0	-0.0	-0.0	-0.0	106528.734375	9134.4970703125	-4020.36083984375
0.504	-0.0	-0.0	-0.0	-6.385919570922852	94.76034545898438	-483.753662109375	6.73632287979126	-77.5151138305664	-427.0348510742188	-0.0	-0.0	-0.0	-0.0	-0.0	-0.0	105219.2890625	8392.380859375	-3745.854248046875
0.5045000000000001	-0.0	-0.0	-0.0	-6.937670230865479	92.74786376953124	-477.85247802734375	7.0764007568359375	-76.19580841064453	-421.3024597167969	-0.0	-0.0	-0.0	-0.0	-0.0	-0.0	103841.3203125	7794.00390625	-3512.8505859375
0.505	-0.0	-0.0	-0.0	-7.110570907592773	91.12271881103516	-473.3651428222656	7.68651008605957	-74.15902709960938	-416.5171203613281	-0.0	-0.0	-0.0	-0.0	-0.0	-0.0	102568.34375	7070.119140625	-3107.14208984375
0.5055000000000001	-0.0	-0.0	-0.0	-7.918313026428223	89.57107543945312	-468.1725463867188	8.109003067016602	-72.24210357666016	-410.4593811035156	-0.0	-0.0	-0.0	-0.0	-0.0	-0.0	101242.546875	6192.03662109375	-2902.14013671875
0.506	-0.0	-0.0	-0.0	-7.944490909576416	88.63166046142578	-459.7351379394531	8.218921661376953	-70.92713165283203	-402.77923583984375	-0.0	-0.0	-0.0	-0.0	-0.0	-0.0	100042.140625	5690.0439453125	-2701.171142578125
0.5065000000000001	-0.0	-0.0	-0.0	-8.086897850036621	87.4636001586914	-455.4783630371094	7.931020259857178	-69.12952423095703	-397.6654357910156	-0.0	-0.0	-0.0	-0.0	-0.0	-0.0	99057.7734375	5036.18212890625	-2551.06787109375
0.507	-0.0	-0.0	-0.0	-8.051450729370117	85.68113708496094	-449.7934265136719	8.099306106567383	-67.71183013916016	-393.0225524902344	-0.0	-0.0	-0.0	-0.0	-0.0	-0.0	97876.9921875	4343.44189453125	-2255.525390625
0.5075000000000001	-0.0	-0.0	-0.0	-6.931429386138916	84.10801696777344	-446.2962951660156	8.458495140075684	-65.73798370361328	-386.5439147949219	-0.0	-0.0	-0.0	-0.0	-0.0	-0.0	96934.3828125	3846.60888671875	-2155.4443359375
0.508	-0.0	-0.0	-0.0	-6.097361087799072	82.7169418334961	-440.29248046875	8.805253982543945	-63.406986236572266	-381.3636474609375	-0.0	-0.0	-0.0	-0.0	-0.0	-0.0	95716.2734375	3239.415283203125	-1837.337646484375
0.5085000000000001	-0.0	-0.0	-0.0	-4.99578857421875	81.05416870117188	-436.8836059570313	9.140989303588867	-61.99806213378906	-375.4593505859375	-0.0	-0.0	-0.0	-0.0	-0.0	-0.0	94336.8125	2505.2470703125	-1620.1502685546875
